<svg xmlns="http://www.w3.org/2000/svg" viewBox="0 0 400 300">
  <defs>
    <linearGradient id="contactBg" x1="0%" y1="0%" x2="100%" y2="100%">
      <stop offset="0%" style="stop-color:#667eea;stop-opacity:0.1" />
      <stop offset="100%" style="stop-color:#764ba2;stop-opacity:0.1" />
    </linearGradient>
  </defs>
  <rect fill="url(#contactBg)" width="400" height="300" rx="10"/>

  <!-- Envelope -->
  <rect x="80" y="100" width="150" height="100" fill="#4a5568" rx="5"/>
  <polygon points="80,100 155,160 230,100" fill="#667eea"/>
  <polygon points="80,200 130,150 155,170 180,150 230,200" fill="#5a67d8"/>

  <!-- Phone -->
  <rect x="260" y="80" width="60" height="100" fill="#2d3748" rx="8"/>
  <rect x="268" y="95" width="44" height="65" fill="#4a5568"/>
  <circle cx="290" cy="170" r="5" fill="#667eea"/>

  <!-- Chat Bubbles -->
  <rect x="260" y="200" width="80" height="40" fill="#48bb78" rx="10"/>
  <polygon points="275,240 265,260 290,240" fill="#48bb78"/>
  <circle cx="280" cy="220" r="3" fill="white"/>
  <circle cx="295" cy="220" r="3" fill="white"/>
  <circle cx="310" cy="220" r="3" fill="white"/>

  <!-- Location Pin -->
  <path d="M155 220 C155 205, 170 190, 185 190 C200 190, 215 205, 215 220 C215 245, 185 270, 185 270 C185 270, 155 245, 155 220" fill="#e53e3e"/>
  <circle cx="185" cy="218" r="10" fill="white"/>

  <!-- Decorative circles -->
  <circle cx="50" cy="50" r="20" fill="#667eea" opacity="0.3"/>
  <circle cx="350" cy="40" r="15" fill="#48bb78" opacity="0.3"/>
  <circle cx="60" cy="260" r="12" fill="#e53e3e" opacity="0.3"/>
</svg>
